<svg width="148" height="70" viewBox="0 0 148 70" fill="none" xmlns="http://www.w3.org/2000/svg">
<g clip-path="url(#clip0_36_54)">
<path fill-rule="evenodd" clip-rule="evenodd" d="M58.1681 17.957H78.8609L82.011 24.7312L80.9248 25.2419C78.3721 22.6075 76.96 21.1828 76.6884 20.9946C75.4393 20.1882 73.484 19.7581 70.7956 19.7581H66.4778V29.5699H69.8995C71.3387 29.5699 72.425 29.1936 73.1039 28.414C73.6198 27.8495 74.1086 26.8011 74.5703 25.2957H75.9009V35.6183H74.4345C74.1901 34.1129 73.8371 33.0914 73.4026 32.5269C72.778 31.7473 71.8004 31.3441 70.4154 31.3441H66.4778V38.6828C66.4778 40 66.9123 40.914 67.8084 41.371C68.433 41.6936 69.465 41.8817 70.9314 41.8817C73.3754 41.8817 75.0862 41.7473 76.0639 41.4785C77.0415 41.1828 77.9376 40.5914 78.7523 39.6774C79.7842 38.3602 80.8161 37.043 81.8481 35.7258L82.9615 36.1559C81.7123 39.4355 80.8976 41.9355 80.4903 43.6559H58.2224V42.1237C59.5802 41.9086 60.4763 41.586 60.938 41.1828C61.5083 40.6989 61.807 39.8118 61.807 38.5753V22.285C61.807 20.6452 60.585 19.7043 58.1681 19.4893V17.957V17.957Z" fill="#004191"/>
<path fill-rule="evenodd" clip-rule="evenodd" d="M56.8103 48.871L69.3292 48.8441C69.7637 50.2688 70.171 51.4247 70.5784 52.2849L69.8995 52.5538C69.3835 51.9624 68.8947 51.371 68.3787 50.7796C67.9714 50.3495 67.5097 50.0538 67.0209 49.8925C66.4778 49.7581 65.5817 49.6774 64.3596 49.6774V58.9785C64.3596 59.4892 64.6312 59.8387 65.12 60.0269C65.2829 60.0806 65.7989 60.1882 66.6679 60.3226V61.129C65.3101 61.0753 63.9251 61.0484 62.5402 61.0484C61.8341 61.0484 60.7751 61.0753 59.3901 61.129V60.3226C60.3134 60.2957 60.9108 60.1882 61.2367 60C61.644 59.7581 61.8341 59.2742 61.8341 58.5484V49.7043H61.0738C60.1505 49.7043 59.4173 49.8118 58.8741 50.0538C58.4396 50.2419 58.0051 50.5645 57.5978 51.0215C57.1633 51.5322 56.756 52.043 56.3215 52.5538L55.6426 52.2581C55.9684 51.5323 56.3486 50.3763 56.8103 48.871ZM71.9905 60.3226L71.9633 60.3495C72.8051 60.2688 73.3754 60.1344 73.6741 59.8656C73.9729 59.6236 74.1086 59.1398 74.1086 58.4677V52.2043C74.1086 51.1559 74.0543 50.5376 73.9457 50.3763C73.7284 49.9193 73.0767 49.6774 72.0448 49.6505V48.8441C73.294 48.871 74.2173 48.8978 74.8147 48.8978C75.1949 48.8978 75.7651 48.8978 76.5255 48.871C77.313 48.871 77.8833 48.8441 78.2907 48.8441C82.4184 48.8441 84.4551 49.8118 84.4551 51.7473C84.4551 52.6613 84.1835 53.3871 83.6675 53.8978C83.3417 54.2204 82.6084 54.6774 81.4679 55.2957L85.5141 59.4624C86.0573 60 86.7362 60.2957 87.5508 60.3495L87.5237 61.1021C87.1435 61.1021 86.5461 61.1021 85.7585 61.1021C85.2969 61.1021 84.618 61.1021 83.6947 61.1021C82.4455 59.6505 80.7347 57.8226 78.5894 55.5914H76.607V58.6559C76.607 59.3279 76.7699 59.7849 77.1229 60C77.3945 60.1882 77.9376 60.3226 78.7523 60.3495V61.0753L75.2492 60.9677C74.3802 60.9677 73.294 60.9946 71.9905 61.0753V60.3226ZM77.5846 54.7849H78.4536C79.3497 54.7849 80.1373 54.543 80.789 54.0323C81.4136 53.5484 81.7395 52.9301 81.7395 52.1774C81.7395 50.5107 80.6261 49.6505 78.3993 49.6505H77.0143C76.96 49.6505 76.9057 49.6505 76.8242 49.6505C76.7428 49.6505 76.6884 49.6505 76.6341 49.6505V54.7312C76.7428 54.7312 76.9057 54.7312 77.1229 54.7312C77.313 54.7849 77.476 54.7849 77.5846 54.7849ZM87.8224 60.2957C88.7185 60.215 89.3431 59.9731 89.7233 59.5968C89.9134 59.4086 90.2121 58.871 90.5923 57.9839C91.244 56.6129 92.1945 54.543 93.4437 51.7742C94.0411 50.3763 94.367 49.4624 94.4213 49.0054C95.0459 48.871 95.942 48.5484 97.0554 48.0376C97.6257 49.7849 98.549 52.2312 99.8796 55.3763C100.178 56.1559 100.64 57.2849 101.292 58.8172C101.509 59.3279 101.753 59.6774 102.079 59.8656C102.324 60 102.812 60.1613 103.491 60.2688V61.0753C101.998 61.0215 101.265 60.9946 101.265 60.9946H99.0921C98.8206 60.9946 98.4675 60.9946 98.033 61.0215C97.4899 61.0484 97.1097 61.0753 96.974 61.0753V60.2688C98.1145 60.215 98.6848 59.8925 98.6848 59.2473C98.6848 58.8978 98.549 58.3871 98.2503 57.715C98.0059 57.2043 97.7886 56.6935 97.5714 56.1828H92.5204C92.276 56.6935 92.0587 57.2043 91.8415 57.715C91.5428 58.3871 91.407 58.8978 91.407 59.2473C91.407 59.6236 91.6514 59.8925 92.113 60.0538C92.3031 60.1075 92.7376 60.1882 93.3894 60.2957V61.0215C91.9773 61.0215 90.9182 61.0215 90.2121 61.0215C89.4246 61.0215 88.6642 61.0484 87.9039 61.1021V60.2957H87.8224ZM97.2727 55.3495C96.3222 53.0376 95.589 51.3172 95.073 50.1613L92.8734 55.3495H97.2727ZM101.509 48.7903L101.536 48.7634C102.812 48.8172 103.98 48.8441 105.012 48.871C105.528 48.871 106.723 48.871 108.542 48.8172V49.5968C107.375 49.6505 106.804 50.0269 106.804 50.672C106.804 51.0753 107.239 52.3118 108.162 54.3548C108.76 55.672 109.357 56.9892 109.955 58.3064C110.579 56.9892 111.231 55.672 111.883 54.3548C112.833 52.3656 113.295 51.129 113.295 50.6452C113.295 50.215 113.105 49.9462 112.697 49.7849C112.236 49.7312 111.91 49.6774 111.692 49.6505V48.7634C112.561 48.8441 113.43 48.871 114.327 48.871C114.951 48.871 115.875 48.871 117.124 48.8172V49.6505C116.39 49.6774 115.847 49.8118 115.521 50C115.25 50.1882 114.951 50.5645 114.625 51.1828L109.33 61.3441H108.678L103.736 50.8064C103.519 50.3495 103.247 50.0269 102.894 49.8925C102.622 49.7849 102.188 49.7043 101.509 49.6505V48.7903ZM118.536 48.871H130.186L131.951 52.0699L131.326 52.3118C129.887 51.0753 129.099 50.4032 128.937 50.2957C128.258 49.9193 127.144 49.7043 125.651 49.7043H123.234V54.3548H125.162C125.977 54.3548 126.574 54.1667 126.981 53.8172C127.253 53.5484 127.552 53.0376 127.796 52.3387H128.529V57.2312H127.687C127.552 56.5323 127.361 56.0484 127.117 55.7527C126.791 55.3763 126.221 55.1882 125.433 55.1882H123.207V58.6828C123.207 59.3011 123.451 59.7312 123.94 59.9462C124.293 60.1075 124.863 60.1882 125.705 60.1882C127.063 60.1882 128.04 60.1344 128.583 60C129.154 59.8656 129.643 59.5699 130.104 59.1398C130.702 58.5215 131.272 57.9032 131.842 57.2581L132.467 57.4462C131.761 59.0054 131.299 60.1882 131.082 60.9946H118.563V60.2688C119.323 60.1613 119.839 60.0269 120.084 59.8387C120.41 59.5968 120.572 59.1935 120.572 58.6021V50.8602C120.572 50.0806 119.894 49.6505 118.536 49.543V48.871V48.871ZM134.042 60.3226C135.427 60.1882 136.133 59.7581 136.133 59.0322V51.0753C136.133 50.1344 135.427 49.6505 134.042 49.6505V48.8441C135.454 48.871 136.513 48.8978 137.219 48.8978C138.061 48.8978 139.337 48.871 141.048 48.8441V49.6505C140.179 49.6774 139.609 49.7581 139.31 49.8925C138.903 50.1075 138.713 50.5645 138.713 51.2365V58.7634C138.713 59.1129 138.821 59.4355 139.093 59.7043C139.337 60 139.663 60.1344 140.07 60.1344H143.193C144.714 60.1344 146.018 59.0322 147.185 56.8548L148.027 57.0968C147.403 58.5753 146.914 59.8925 146.615 61.0484H134.069V60.3226H134.042Z" fill="#004191"/>
<path fill-rule="evenodd" clip-rule="evenodd" d="M51.9222 16.6129L52.2209 32.7957L50.3743 33.0107C49.1523 28.4409 46.7626 24.5699 43.178 21.4247C39.4305 18.1183 35.2213 16.4785 30.6048 16.4785C24.1145 16.4785 18.8734 19.0054 14.9358 24.086C11.324 28.7097 9.53174 34.328 9.53174 40.9946C9.53174 48.2527 11.0525 54.2742 14.1211 59.0054C17.76 64.6505 23.0283 67.4731 29.9802 67.4194C31.6639 67.4194 33.3747 67.1774 35.0583 66.6667C38.3714 65.6989 40.5439 64.4086 41.6301 62.8226C42.662 61.371 43.1508 58.9247 43.1508 55.4839C43.1508 51.8817 42.6349 49.7043 41.5758 48.9516C41.1413 48.629 38.9416 48.1183 34.9769 47.3925L34.8683 45.0269C39.6205 45.1613 46.7354 45.2419 56.2128 45.2419L56.1314 47.6075H55.4253C52.2752 47.6075 50.7002 49.7849 50.7002 54.1129V63.5484C43.7483 67.8226 36.2804 69.9731 28.3237 69.9731C20.4213 69.9731 13.7138 67.1505 8.25541 61.5323C2.74275 55.914 0 49.1667 0 41.2903C0 33.7366 2.87853 27.2312 8.66275 21.8011C14.3383 16.4785 21.0459 13.8172 28.731 13.8172C35.3299 13.8172 42.0646 15.7527 48.8807 19.6505L51.9222 16.6129Z" fill="#004191"/>
<path fill-rule="evenodd" clip-rule="evenodd" d="M100.341 1.72043C95.236 4.08602 94.3127 10.672 94.2855 14.2204L103.872 10.1613L100.368 1.66667C111.394 -3.01075 124.347 2.55376 129.072 14.0054C133.825 25.4301 128.638 38.6828 117.612 43.3602L114.327 35.4032L104.903 39.3817C108.515 42.6613 112.752 44.8118 116.906 43.629C111.937 45.0806 107.646 43.1989 103.6 40.0538L97.5442 41.6129L102.269 38.8441C99.065 35.7258 97.6528 33.5215 95.3446 28.871L89.0716 30.6989L94.8829 27.6613C93.5251 24.1935 92.7105 19.6774 92.7376 16.4516C90.9453 16.7742 88.3655 17.957 86.5461 18.2796C88.3112 17.1237 91.0268 15.9946 92.7919 14.8118C93.2536 8.79032 95.8334 3.65591 100.341 1.72043ZM104.523 11.7204L94.2855 16.0484C94.4213 20 95.589 23.9247 96.7295 26.9892L108.76 21.9355L104.523 11.7204ZM109.248 23.2258L97.2727 28.2796C99.3365 32.9839 101.509 35.8333 103.709 38.1989L113.702 33.9785L109.248 23.2258ZM100.613 1.58602C105.8 -0.215054 110.905 3.62903 113.403 6.10215L103.872 10.1344L103.79 10.2151L104.415 11.7473L114.652 7.39247C117.341 10.2688 119.269 13.871 120.627 16.8548L108.705 21.9355L108.732 21.9892H108.624L109.14 23.2258L121.116 18.1183C122.989 22.957 123.532 26.5323 123.641 29.8118L113.566 34.086L114.191 35.4839L114.327 35.4301V35.457L123.641 31.5054C123.397 36.3172 121.985 40.8065 118.319 43.0645L118.346 43.0376C122.718 40.457 124.374 36.0215 125.026 30.9946L129.996 28.871C130.186 28.2258 130.321 27.5806 130.43 26.9355L125.135 29.1935C125.135 24.6774 124.592 22.2849 122.962 17.3387L129.29 14.6505C129.208 14.4355 129.127 14.2204 129.045 14.0054C128.937 13.7634 128.828 13.5215 128.719 13.2796L122.419 15.9677C120.898 12.5 118.346 8.8172 116.065 6.55914L121.414 4.27419C120.953 3.92473 120.464 3.60215 119.975 3.30645L114.87 5.45699C110.416 1.6129 105.229 -0.107527 100.803 1.47849C100.749 1.53226 100.667 1.55914 100.613 1.58602ZM108.95 0C121.55 0 131.761 10.1075 131.761 22.5806C131.761 35.0538 121.55 45.1613 108.95 45.1613C96.3494 45.1613 86.1387 35.0538 86.1387 22.5806C86.1387 10.1075 96.3765 0 108.95 0Z" fill="#004191"/>
</g>
<defs>
<clipPath id="clip0_36_54">
<rect width="148" height="70" fill="white"/>
</clipPath>
</defs>
</svg>
