<svg width="22" height="21" viewBox="0 0 22 21" fill="none" xmlns="http://www.w3.org/2000/svg">
<path fill-rule="evenodd" clip-rule="evenodd" d="M6.465 0.063C7.638 0.0114545 8.012 0 11 0C13.988 0 14.362 0.0124091 15.534 0.063C16.706 0.113591 17.506 0.292091 18.206 0.550773C18.939 0.815182 19.604 1.2285 20.154 1.76305C20.714 2.28709 21.146 2.92091 21.422 3.62155C21.694 4.28973 21.88 5.05336 21.934 6.17018C21.988 7.29177 22 7.64877 22 10.5C22 13.3522 21.987 13.7092 21.934 14.8289C21.881 15.9457 21.694 16.7093 21.422 17.3775C21.146 18.0782 20.7133 18.7131 20.154 19.2379C19.604 19.7725 18.939 20.1848 18.206 20.4483C17.506 20.7079 16.706 20.8855 15.536 20.937C14.362 20.9885 13.988 21 11 21C8.012 21 7.638 20.9876 6.465 20.937C5.295 20.8864 4.495 20.7079 3.795 20.4483C3.06092 20.1848 2.39582 19.7717 1.846 19.2379C1.28638 18.7135 0.853315 18.079 0.577 17.3785C0.306 16.7103 0.12 15.9466 0.066 14.8298C0.012 13.7082 0 13.3512 0 10.5C0 7.64782 0.013 7.29082 0.066 6.17209C0.119 5.05336 0.306 4.28973 0.577 3.62155C0.853723 2.92099 1.28712 2.28644 1.847 1.76209C2.39604 1.22802 3.06047 0.814651 3.794 0.550773C4.494 0.292091 5.294 0.114545 6.464 0.063H6.465ZM15.445 1.953C14.285 1.90241 13.937 1.89191 11 1.89191C8.063 1.89191 7.715 1.90241 6.555 1.953C5.482 1.99977 4.9 2.17064 4.512 2.31477C3.999 2.50568 3.632 2.73191 3.247 3.09941C2.88205 3.43832 2.60118 3.85091 2.425 4.30691C2.274 4.67727 2.095 5.23282 2.046 6.25705C1.993 7.36432 1.982 7.6965 1.982 10.5C1.982 13.3035 1.993 13.6357 2.046 14.743C2.095 15.7672 2.274 16.3227 2.425 16.6931C2.601 17.1484 2.882 17.5617 3.247 17.9006C3.602 18.249 4.035 18.5172 4.512 18.6852C4.9 18.8294 5.482 19.0002 6.555 19.047C7.715 19.0976 8.062 19.1081 11 19.1081C13.938 19.1081 14.285 19.0976 15.445 19.047C16.518 19.0002 17.1 18.8294 17.488 18.6852C18.001 18.4943 18.368 18.2681 18.753 17.9006C19.118 17.5617 19.399 17.1484 19.575 16.6931C19.726 16.3227 19.905 15.7672 19.954 14.743C20.007 13.6357 20.018 13.3035 20.018 10.5C20.018 7.6965 20.007 7.36432 19.954 6.25705C19.905 5.23282 19.726 4.67727 19.575 4.30691C19.375 3.81723 19.138 3.46691 18.753 3.09941C18.3979 2.75107 17.9657 2.48297 17.488 2.31477C17.1 2.17064 16.518 1.99977 15.445 1.953V1.953ZM9.595 13.7369C10.3797 14.0486 11.2534 14.0907 12.0669 13.8559C12.8805 13.6211 13.5834 13.124 14.0556 12.4494C14.5278 11.7749 14.7401 10.9647 14.656 10.1574C14.572 9.3501 14.197 8.59566 13.595 8.02295C13.2112 7.65686 12.7472 7.37655 12.2363 7.20219C11.7255 7.02782 11.1804 6.96375 10.6405 7.01459C10.1006 7.06542 9.57915 7.2299 9.1138 7.49617C8.64846 7.76244 8.25074 8.12389 7.9493 8.55449C7.64786 8.9851 7.45019 9.47414 7.37052 9.98642C7.29084 10.4987 7.33115 11.0215 7.48854 11.5171C7.64593 12.0127 7.91648 12.4689 8.28072 12.8527C8.64496 13.2365 9.09382 13.5385 9.595 13.7369ZM7.002 6.68373C7.52702 6.18257 8.15032 5.78503 8.8363 5.5138C9.52228 5.24257 10.2575 5.10298 11 5.10298C11.7425 5.10298 12.4777 5.24257 13.1637 5.5138C13.8497 5.78502 14.473 6.18257 14.998 6.68373C15.523 7.18489 15.9395 7.77985 16.2236 8.43465C16.5078 9.08945 16.654 9.79125 16.654 10.5C16.654 11.2087 16.5078 11.9106 16.2236 12.5654C15.9395 13.2201 15.523 13.8151 14.998 14.3163C13.9377 15.3284 12.4995 15.897 11 15.897C9.50046 15.897 8.06234 15.3284 7.002 14.3163C5.94166 13.3041 5.34597 11.9314 5.34597 10.5C5.34597 9.06862 5.94166 7.69587 7.002 6.68373V6.68373ZM17.908 5.90673C18.0381 5.78957 18.1423 5.6487 18.2143 5.49243C18.2863 5.33616 18.3248 5.16769 18.3274 4.99698C18.33 4.82627 18.2967 4.6568 18.2295 4.49859C18.1622 4.34039 18.0624 4.19667 17.936 4.07595C17.8095 3.95522 17.6589 3.85995 17.4932 3.79577C17.3275 3.73158 17.1499 3.69979 16.9711 3.70228C16.7922 3.70477 16.6157 3.74149 16.452 3.81026C16.2883 3.87902 16.1407 3.97845 16.018 4.10264C15.7793 4.34416 15.6486 4.66498 15.6537 4.99698C15.6588 5.32898 15.7992 5.64602 16.0452 5.8808C16.2911 6.11559 16.6233 6.24963 16.9711 6.25447C17.3189 6.25931 17.655 6.13457 17.908 5.90673V5.90673Z" fill="white"/>
</svg>
