<svg width="24" height="24" viewBox="0 0 24 24" fill="none" xmlns="http://www.w3.org/2000/svg">
<path d="M1 12C1 18.0753 5.9247 23 12 23C18.0753 23 23 18.0753 23 12C23 5.9247 18.0753 1 12 1C5.9247 1 1 5.9247 1 12Z" stroke="white" stroke-linecap="round" stroke-linejoin="round"/>
<path d="M1.69341 15.85H22.3074M1.69341 8.14999H22.3074M13.1004 1.05499C13.1004 1.05499 19.3333 5.39999 19.3333 12C19.3333 18.6 13.1004 22.945 13.1004 22.945L13.8333 12L13.1004 1.05499ZM10.9004 22.945C10.9004 22.945 5.88883 18.6 5.88883 12C5.88883 5.39999 10.9004 1.05499 10.9004 1.05499L10.1666 12L10.9004 22.945Z" stroke="white" stroke-linecap="round" stroke-linejoin="round"/>
</svg>
