<svg width="26" height="26" viewBox="0 0 26 26" fill="none" xmlns="http://www.w3.org/2000/svg">
<path d="M13 26C9.55219 26 6.24558 24.6304 3.80761 22.1924C1.36964 19.7544 1.96138e-07 16.4478 1.55023e-07 13C1.13909e-07 9.55219 1.36964 6.24559 3.80761 3.80761C6.24558 1.36964 9.55219 1.96138e-07 13 1.55023e-07C16.4478 1.13909e-07 19.7544 1.36964 22.1924 3.80761C24.6304 6.24558 26 9.55219 26 13C26 16.4478 24.6304 19.7544 22.1924 22.1924C19.7544 24.6304 16.4478 26 13 26V26ZM18.6875 13.8125C18.903 13.8125 19.1097 13.7269 19.262 13.5745C19.4144 13.4222 19.5 13.2155 19.5 13C19.5 12.7845 19.4144 12.5778 19.262 12.4255C19.1097 12.2731 18.903 12.1875 18.6875 12.1875L9.27387 12.1875L12.7628 8.70025C12.9153 8.54768 13.001 8.34076 13.001 8.125C13.001 7.90924 12.9153 7.70232 12.7628 7.54975C12.6102 7.39718 12.4033 7.31147 12.1875 7.31147C11.9717 7.31147 11.7648 7.39718 11.6122 7.54975L6.73725 12.4248C6.66158 12.5002 6.60155 12.5899 6.56059 12.6886C6.51963 12.7873 6.49855 12.8931 6.49855 13C6.49855 13.1069 6.51963 13.2127 6.56059 13.3114C6.60155 13.4101 6.66158 13.4998 6.73725 13.5753L11.6123 18.4503C11.7648 18.6028 11.9717 18.6885 12.1875 18.6885C12.4033 18.6885 12.6102 18.6028 12.7628 18.4503C12.9153 18.2977 13.001 18.0908 13.001 17.875C13.001 17.6592 12.9153 17.4523 12.7628 17.2998L9.27387 13.8125L18.6875 13.8125Z" fill="white"/>
</svg>
