<svg width="26" height="26" viewBox="0 0 26 26" fill="none" xmlns="http://www.w3.org/2000/svg">
<path d="M13 -5.68248e-07C16.4478 -7.18957e-07 19.7544 1.36964 22.1924 3.80761C24.6304 6.24558 26 9.55218 26 13C26 16.4478 24.6304 19.7544 22.1924 22.1924C19.7544 24.6304 16.4478 26 13 26C9.55219 26 6.24558 24.6304 3.80761 22.1924C1.36964 19.7544 -4.17539e-07 16.4478 -5.68248e-07 13C-7.18957e-07 9.55219 1.36964 6.24558 3.80761 3.80761C6.24558 1.36964 9.55218 -4.17539e-07 13 -5.68248e-07ZM7.3125 12.1875C7.09701 12.1875 6.89035 12.2731 6.73798 12.4255C6.5856 12.5778 6.5 12.7845 6.5 13C6.5 13.2155 6.5856 13.4222 6.73798 13.5745C6.89035 13.7269 7.09701 13.8125 7.3125 13.8125L16.7261 13.8125L13.2372 17.2997C13.0847 17.4523 12.999 17.6592 12.999 17.875C12.999 18.0908 13.0847 18.2977 13.2372 18.4502C13.3898 18.6028 13.5967 18.6885 13.8125 18.6885C14.0283 18.6885 14.2352 18.6028 14.3878 18.4502L19.2628 13.5752C19.3384 13.4998 19.3984 13.4101 19.4394 13.3114C19.4804 13.2127 19.5015 13.1069 19.5015 13C19.5015 12.8931 19.4804 12.7873 19.4394 12.6886C19.3984 12.5899 19.3384 12.5002 19.2628 12.4247L14.3877 7.54975C14.2352 7.39718 14.0283 7.31147 13.8125 7.31147C13.5967 7.31147 13.3898 7.39718 13.2372 7.54975C13.0847 7.70232 12.999 7.90924 12.999 8.125C12.999 8.34076 13.0847 8.54768 13.2372 8.70025L16.7261 12.1875L7.3125 12.1875Z" fill="white"/>
</svg>
