<svg width="36" height="36" viewBox="0 0 36 36" fill="none" xmlns="http://www.w3.org/2000/svg">
<circle cx="18" cy="18" r="18" fill="white"/>
<circle cx="18.2121" cy="18.2121" r="12.2121" fill="#004191"/>
<path d="M31 18C31 21.4478 29.6304 24.7544 27.1924 27.1924C24.7544 29.6304 21.4478 31 18 31C14.5522 31 11.2456 29.6304 8.80761 27.1924C6.36964 24.7544 5 21.4478 5 18C5 14.5522 6.36964 11.2456 8.80761 8.80761C11.2456 6.36964 14.5522 5 18 5C21.4478 5 24.7544 6.36964 27.1924 8.80761C29.6304 11.2456 31 14.5522 31 18V18ZM18.8125 12.3125C18.8125 12.097 18.7269 11.8903 18.5745 11.738C18.4222 11.5856 18.2155 11.5 18 11.5C17.7845 11.5 17.5778 11.5856 17.4255 11.738C17.2731 11.8903 17.1875 12.097 17.1875 12.3125V21.7261L13.7003 18.2372C13.5477 18.0847 13.3408 17.999 13.125 17.999C12.9092 17.999 12.7023 18.0847 12.5497 18.2372C12.3972 18.3898 12.3115 18.5967 12.3115 18.8125C12.3115 19.0283 12.3972 19.2352 12.5497 19.3878L17.4247 24.2628C17.5002 24.3384 17.5899 24.3984 17.6886 24.4394C17.7873 24.4804 17.8931 24.5015 18 24.5015C18.1069 24.5015 18.2127 24.4804 18.3114 24.4394C18.4101 24.3984 18.4998 24.3384 18.5753 24.2628L23.4503 19.3878C23.6028 19.2352 23.6885 19.0283 23.6885 18.8125C23.6885 18.5967 23.6028 18.3898 23.4503 18.2372C23.2977 18.0847 23.0908 17.999 22.875 17.999C22.6592 17.999 22.4523 18.0847 22.2997 18.2372L18.8125 21.7261V12.3125Z" fill="white"/>
</svg>
