<svg width="21" height="21" viewBox="0 0 21 21" fill="none" xmlns="http://www.w3.org/2000/svg">
<path fill-rule="evenodd" clip-rule="evenodd" d="M15.3115 12.5843C15.0495 12.4539 13.7649 11.8256 13.5258 11.7381C13.2866 11.6515 13.1125 11.6086 12.9376 11.8694C12.7635 12.1284 12.2632 12.7146 12.1111 12.8879C11.9581 13.062 11.806 13.083 11.5449 12.9535C11.2838 12.8223 10.4415 12.5484 9.4436 11.6629C8.66726 10.9734 8.14237 10.122 7.99027 9.86127C7.83816 9.6014 7.97356 9.46052 8.10457 9.33102C8.22238 9.21465 8.36569 9.0274 8.49669 8.87602C8.62769 8.72377 8.67078 8.61527 8.75782 8.44115C8.84574 8.2679 8.80178 8.11652 8.73584 7.98615C8.67078 7.85577 8.14853 6.57565 7.93048 6.05503C7.71859 5.5484 7.50318 5.61753 7.34317 5.60878C7.19019 5.60178 7.0161 5.60003 6.84202 5.60003C6.66793 5.60003 6.38483 5.66478 6.14568 5.92553C5.90566 6.1854 5.2313 6.81453 5.2313 8.09465C5.2313 9.3739 6.16678 10.6103 6.29779 10.7844C6.42879 10.9576 8.13973 13.5844 10.7607 14.7105C11.3849 14.9783 11.8711 15.1384 12.25 15.2574C12.876 15.456 13.4458 15.428 13.8959 15.3606C14.3971 15.2863 15.4416 14.7315 15.6596 14.1243C15.8768 13.517 15.8768 12.9964 15.8117 12.8879C15.7467 12.7794 15.5726 12.7146 15.3106 12.5843H15.3115ZM10.5444 19.0619H10.5409C8.98415 19.0622 7.45603 18.6457 6.11667 17.8561L5.80015 17.6689L2.51015 18.5281L3.38848 15.3361L3.18186 15.0089C2.31157 13.6302 1.851 12.0346 1.85338 10.4064C1.85513 5.63765 5.75355 1.75791 10.5479 1.75791C12.869 1.75791 15.0512 2.65916 16.6918 4.29365C17.501 5.09566 18.1424 6.0494 18.5788 7.09968C19.0153 8.14997 19.2381 9.27596 19.2345 10.4125C19.2327 15.1813 15.3343 19.0619 10.5444 19.0619V19.0619ZM17.9403 3.05203C16.9716 2.08159 15.819 1.31213 14.5493 0.788235C13.2796 0.264341 11.918 -0.00356671 10.5435 3.58553e-05C4.78115 3.58553e-05 0.0896795 4.66815 0.0879211 10.4055C0.0870419 12.2395 0.56797 14.0298 1.48323 15.6074L0 21L5.54254 19.5528C7.07578 20.3841 8.79395 20.8197 10.54 20.8198H10.5444C16.3067 20.8198 20.9982 16.1516 20.9999 10.4134C21.0042 9.04601 20.736 7.69136 20.2108 6.4278C19.6856 5.16425 18.9139 4.01687 17.9403 3.05203" fill="#004191"/>
</svg>
